<?xml version="1.0" encoding="UTF-8"?><svg xmlns="http://www.w3.org/2000/svg" viewBox="0 0 619.88 675.42"><defs><style>.d{fill:#0c0c0c;fill-rule:evenodd;}</style></defs><g id="a"/><g id="b"><g id="c"><g><polygon class="d" points="309.94 0 0 178.94 0 313.45 152.4 401.44 467.49 219.53 513.69 246.2 198.6 428.12 309.94 492.4 619.88 313.45 619.88 178.94 467.49 90.96 152.4 272.87 106.2 246.2 421.28 64.28 309.94 0"/><path class="d" d="M309.94,369.59l-101.37,58.53,101.37,58.53v-117.05Zm0-363.83L4.99,181.82v128.75l147.41,85.11,157.54-90.96v-117.05l-157.54,90.96-56.17-32.43,213.71-123.39V5.76Z"/><polygon class="d" points="619.88 367.91 309.94 546.85 0 367.91 0 496.47 309.94 675.42 619.88 496.47 619.88 367.91"/><polygon class="d" points="309.94 552.61 4.98 376.54 4.99 493.59 309.94 669.66 309.94 552.61"/></g></g></g></svg>